G04 ================== begin FILE IDENTIFICATION RECORD ==================*
G04 Layout Name:  D:/Facultate/proiecte/p1/2024/pcb7/P1/allegro/LAYOUT.brd*
G04 Film Name:    TOP*
G04 File Format:  Gerber RS274X*
G04 File Origin:  Cadence Allegro 16.6-P004*
G04 Origin Date:  Wed Dec 04 20:50:45 2024*
G04 *
G04 Layer:  ETCH/TOP*
G04 Layer:  PIN/TOP*
G04 Layer:  VIA CLASS/TOP*
G04 *
G04 Offset:    (0.00 0.00)*
G04 Mirror:    No*
G04 Mode:      Positive*
G04 Rotation:  0*
G04 FullContactRelief:  No*
G04 UndefLineWidth:     0.00*
G04 ================== end FILE IDENTIFICATION RECORD ====================*
%FSLAX25Y25*MOIN*%
%IR0*IPPOS*OFA0.00000B0.00000*MIA0B0*SFA1.00000B1.00000*%
%ADD11R,.12X.08*%
%ADD14R,.08X.12*%
%ADD17C,.03*%
%ADD10C,.04*%
%ADD13R,.05X.05*%
%ADD16R,.036X.05*%
%ADD15R,.05X.036*%
%ADD12R,.076X.048*%
%ADD18C,.018*%
%ADD19C,.07878*%
%ADD20R,.07804X.07804*%
G75*
%LPD*%
G75*
G36*
G01X4100Y4600D02*
Y153400D01*
X153100D01*
Y4600D01*
X4100D01*
G37*
%LPC*%
G75*
G36*
G01X53602Y127698D02*
Y126098D01*
X45798D01*
Y133902D01*
X53602D01*
Y132302D01*
X57233D01*
G02Y127698I1767J-2302D01*
G01X53602D01*
G37*
G36*
G01X27753Y37202D02*
X29932Y35023D01*
G03X30298Y35421I-34J398D01*
G01Y42502D01*
X31898D01*
Y50298D01*
X30298D01*
Y58102D01*
X38102D01*
Y50298D01*
X36502D01*
Y42502D01*
X38102D01*
Y34698D01*
X31222D01*
G03X30939Y34016I0J-400D01*
G01X36502Y28453D01*
Y25902D01*
X38102D01*
Y18098D01*
X30298D01*
Y25902D01*
X31898D01*
Y26547D01*
X30993Y27452D01*
X25847Y32598D01*
X24302D01*
Y29498D01*
X9498D01*
Y50302D01*
X24302D01*
Y37202D01*
X27753D01*
G37*
G36*
G01X23202Y127698D02*
Y118298D01*
X12798D01*
Y133802D01*
X23202D01*
Y132302D01*
X30398D01*
Y133902D01*
X38202D01*
Y126098D01*
X30398D01*
Y127698D01*
X23202D01*
G37*
G36*
G01X38202Y119298D02*
Y117698D01*
X30398D01*
Y125502D01*
X38202D01*
Y123902D01*
X45798D01*
Y125502D01*
X53602D01*
Y117698D01*
X45798D01*
Y119298D01*
X38202D01*
G37*
G36*
G01X149002Y85602D02*
Y64798D01*
X134198D01*
Y77898D01*
X123802D01*
Y76298D01*
X115998D01*
Y84102D01*
X117598D01*
Y92698D01*
X115998D01*
Y100502D01*
X117598D01*
Y108998D01*
X115998D01*
Y116802D01*
X123802D01*
Y108998D01*
X122202D01*
Y100502D01*
X123802D01*
Y92698D01*
X122202D01*
Y84102D01*
X123802D01*
Y82502D01*
X134198D01*
Y85602D01*
X149002D01*
G37*
G36*
G01X94802Y34898D02*
Y33298D01*
X86998D01*
Y41102D01*
X94802D01*
Y39502D01*
X113247D01*
X117598Y43853D01*
Y46498D01*
X115998D01*
Y54302D01*
X123802D01*
Y46498D01*
X122202D01*
Y41947D01*
X115153Y34898D01*
X94802D01*
G37*
G36*
G01X108302Y23298D02*
Y21698D01*
X100498D01*
Y29502D01*
X108302D01*
Y27902D01*
X116998D01*
Y29502D01*
X124802D01*
Y21698D01*
X116998D01*
Y23298D01*
X108302D01*
G37*
G36*
G01X124802Y14898D02*
Y13298D01*
X116998D01*
Y21102D01*
X124802D01*
Y19502D01*
X132898D01*
Y28902D01*
X143302D01*
Y13398D01*
X132898D01*
Y14898D01*
X124802D01*
G37*
G36*
G01X87902D02*
Y9798D01*
X67098D01*
Y24602D01*
X80198D01*
Y33298D01*
X78598D01*
Y41102D01*
X86402D01*
Y33298D01*
X84802D01*
Y24602D01*
X87902D01*
Y19502D01*
X100498D01*
Y21102D01*
X108302D01*
Y13298D01*
X100498D01*
Y14898D01*
X87902D01*
G37*
G36*
G01X89502Y46498D02*
X83098D01*
Y48098D01*
X69902D01*
Y47198D01*
X62098D01*
Y48098D01*
X58320D01*
X55698Y50720D01*
Y50998D01*
X54098D01*
Y51898D01*
X46502D01*
Y50298D01*
X38698D01*
Y58102D01*
X46502D01*
Y56502D01*
X54098D01*
Y57402D01*
X62098D01*
Y61302D01*
X69902D01*
Y54898D01*
X61902D01*
Y53602D01*
X69902D01*
Y52702D01*
X83098D01*
Y54302D01*
X86898D01*
Y62302D01*
X87798D01*
Y70898D01*
X86198D01*
Y71798D01*
X67202D01*
Y70198D01*
X60798D01*
Y78198D01*
X59502D01*
Y70198D01*
X53098D01*
Y71798D01*
X41647D01*
X37147Y76298D01*
X24302D01*
Y63198D01*
X9498D01*
Y84002D01*
X24302D01*
Y80902D01*
X39053D01*
X43553Y76402D01*
X53098D01*
Y78002D01*
X56898D01*
Y86002D01*
X57798D01*
Y92698D01*
X56198D01*
Y100502D01*
X64002D01*
Y92698D01*
X62402D01*
Y86002D01*
X63302D01*
Y78002D01*
X67202D01*
Y76402D01*
X86198D01*
Y77302D01*
X94198D01*
Y78598D01*
X86198D01*
Y85002D01*
X94002D01*
Y81202D01*
X95798D01*
Y92698D01*
X94198D01*
Y100502D01*
X102002D01*
Y98902D01*
X107598D01*
Y100502D01*
X109198D01*
Y108998D01*
X107598D01*
Y116802D01*
X115402D01*
Y108998D01*
X113802D01*
Y100502D01*
X115402D01*
Y92698D01*
X107598D01*
Y94298D01*
X102002D01*
Y92698D01*
X100402D01*
Y81202D01*
X102002D01*
Y74798D01*
X94002D01*
Y70898D01*
X92402D01*
Y62302D01*
X93302D01*
Y54302D01*
X97202D01*
Y52702D01*
X107598D01*
Y54302D01*
X115402D01*
Y46498D01*
X107598D01*
Y48098D01*
X97202D01*
Y46498D01*
X90798D01*
Y54498D01*
X89502D01*
Y46498D01*
G37*
G36*
G01X46502Y25902D02*
Y18098D01*
X38698D01*
Y25902D01*
X40298D01*
Y34698D01*
X38698D01*
Y42502D01*
X46502D01*
Y34698D01*
X44902D01*
Y25902D01*
X46502D01*
G37*
G36*
G01X64002Y102698D02*
Y101098D01*
X56198D01*
Y108902D01*
X57798D01*
Y111253D01*
X68461Y121916D01*
G03X68178Y122598I-283J282D01*
G01X66998D01*
Y137402D01*
X87802D01*
Y122598D01*
X74702D01*
Y121647D01*
X62402Y109347D01*
Y108902D01*
X64002D01*
Y107302D01*
X79800D01*
X83832D01*
G02X87367I1767J-2302D01*
G01X94198D01*
Y108902D01*
X102002D01*
Y101098D01*
X94198D01*
Y102698D01*
X87367D01*
G02X83832I-1767J2302D01*
G01X79846D01*
X64002D01*
G37*
G54D19*
X137500Y137500D03*
X20000Y20000D03*
G54D20*
X119900Y71800D03*
%LPD*%
G75*
G54D10*
X20000Y20000D03*
X137500Y137500D03*
G54D11*
X16900Y34900D03*
Y44900D03*
Y68600D03*
Y78600D03*
X141600Y70200D03*
Y80200D03*
G54D12*
X18000Y122100D03*
Y130000D03*
X138100Y17200D03*
Y25100D03*
G54D13*
X42600Y38600D03*
X34200D03*
Y22000D03*
X42600D03*
X34200Y54200D03*
X42600D03*
X49700Y121600D03*
Y130000D03*
X34300Y121600D03*
Y130000D03*
X82500Y37200D03*
X60100Y96600D03*
Y105000D03*
X104400Y25600D03*
Y17200D03*
X90900Y37200D03*
X111500Y50400D03*
X98100Y96600D03*
X111500D03*
X98100Y105000D03*
X111500Y112900D03*
X120900Y25600D03*
Y17200D03*
X119900Y71800D03*
Y50400D03*
Y80200D03*
Y96600D03*
Y112900D03*
G54D14*
X82500Y17200D03*
X72500D03*
X82400Y130000D03*
X72400D03*
G54D15*
X66000Y50400D03*
Y58100D03*
X58000Y54200D03*
X90100Y81800D03*
Y74100D03*
X98100Y78000D03*
G54D16*
X56300Y74100D03*
X64000D03*
X60100Y82100D03*
X86300Y50400D03*
X94000D03*
X90100Y58400D03*
G54D17*
X59000Y130000D03*
X85600Y105000D03*
G54D18*
G01X16900Y34900D02*
X26800D01*
X34200Y27500D01*
Y22000D01*
G01X16900Y62998D02*
Y68600D01*
G01X9298D02*
X16900D01*
G01D02*
X24502D01*
G01X16900Y44900D02*
Y50502D01*
G01X9298Y44900D02*
X16900D01*
G01D02*
X24502D01*
G01X56300Y74100D02*
X42600D01*
X38100Y78600D01*
X16900D01*
G01X18000Y118098D02*
Y122100D01*
G01X12598D02*
X18000D01*
G01D02*
X23402D01*
G01X34300Y130000D02*
X18000D01*
G01X42600Y38600D02*
Y22000D01*
G01X34200Y54200D02*
Y38600D01*
G01X58000Y54200D02*
X42600D01*
G01X49700Y130000D02*
X59000D01*
G01X34300Y121600D02*
X49700D01*
G01X72500Y9598D02*
Y17200D01*
G01D02*
Y24802D01*
G01X66898Y17200D02*
X72500D01*
G01X66000Y54698D02*
Y58100D01*
G01D02*
Y61502D01*
G01X61898Y58100D02*
X66000D01*
G01D02*
X70102D01*
G01X86300Y50400D02*
X66000D01*
G01D02*
X59273D01*
X58000Y51673D01*
Y54200D01*
G01X60100Y96600D02*
Y82100D01*
G01X64000Y74100D02*
X90100D01*
G01X85600Y105000D02*
X60100D01*
G01X72400Y130000D02*
Y122600D01*
X60100Y110300D01*
Y105000D01*
G01X82500Y17200D02*
X104400D01*
G01X82500Y37200D02*
Y17200D01*
G01X104400Y25600D02*
X120900D01*
G01X119900Y50400D02*
Y42900D01*
X114200Y37200D01*
X90900D01*
G01X111500Y50400D02*
X94000D01*
G01X90100Y74100D02*
Y58400D01*
G01Y78398D02*
Y81800D01*
G01D02*
Y85202D01*
G01X85998Y81800D02*
X90100D01*
G01D02*
X94202D01*
G01X98100Y96600D02*
X111500D01*
G01X98100Y78000D02*
Y96600D01*
G01Y105000D02*
X85600D01*
G01X82400Y122398D02*
Y130000D01*
G01D02*
Y137602D01*
G01Y130000D02*
X88002D01*
G01X138100Y25100D02*
Y29102D01*
G01X132698Y25100D02*
X138100D01*
G01D02*
X143502D01*
G01X120900Y17200D02*
X138100D01*
G01X119900Y67698D02*
Y71800D01*
G01X133998Y70200D02*
X141600D01*
G01X115798Y71800D02*
X119900D01*
G01D02*
X124002D01*
G01X119900Y96600D02*
Y80200D01*
G01Y112900D02*
Y96600D01*
G01X141600Y80200D02*
X119900D01*
G01X111500Y112900D02*
Y96600D01*
G01X141600Y64598D02*
Y70200D01*
G01D02*
X149202D01*
M02*
